<?xml version="1.0" encoding="utf-8"?>
<!-- Generator: Adobe Illustrator 19.0.0, SVG Export Plug-In . SVG Version: 6.00 Build 0)  -->
<svg version="1.1" xmlns="http://www.w3.org/2000/svg" xmlns:xlink="http://www.w3.org/1999/xlink" x="0px" y="0px"
	 viewBox="0 0 341 476.7" style="enable-background:new 0 0 341 476.7;" xml:space="preserve">
<style type="text/css">
	.st0{fill:#CF0013;}
	.st1{fill:#FFFFFF;}
</style>
<g id="Layer_1">
	<path id="XMLID_1_" class="st0" d="M331.4,0c10.2,0,9.3-0.8,9.3,9.4c0,98.5,0.9,197-0.3,295.5c-0.8,68.8-32.6,120.6-93.5,153.2
		c-29.2,15.6-60.9,21.4-94,17.2c-69.8-8.8-117.1-46.9-142.8-112c-7.1-17.9-10-36.8-10.1-56C-0.1,207.5,0,107.6,0,7.7
		C0,6.3,0.1,5,0,3.6C0,1.2,1.1,0,3.5,0c2.2,0,4.4,0,6.6,0"/>
</g>
<g id="Layer_2">
	<g id="XMLID_4_">
		<path id="XMLID_188_" class="st1" d="M169.5,16.3c50.3,0,100.5,0,150.8,0c9.6,0,8.7-0.7,8.8,8.8c0,92.2,0.8,184.5-0.3,276.7
			c-0.7,64.4-30.5,113-87.6,143.5c-27.3,14.6-57.1,20-88,16.1c-65.4-8.3-109.6-43.9-133.7-104.8c-6.6-16.8-9.4-34.5-9.4-52.5
			C9.9,210.5,10,117,10,23.5c0-1.3,0.1-2.6,0-3.9c-0.1-2.2,1-3.3,3.2-3.3c2.1,0,4.1,0,6.2,0C69.5,16.3,119.5,16.3,169.5,16.3z
			 M15.9,128.9c0,32.9,0,65.8,0,98.7c0,9.2-1.4,9.1,9.4,9.1c44.1,0,88.1,0,132.2,0c10.6,0,9.3-0.1,9.3-9.3c0-65.3,0-130.6,0-195.9
			c0-1.8-0.1-3.6,0-5.4c0.1-2.5-0.9-3.9-3.6-3.9c-1,0-2.1,0-3.1,0c-45.9,0-91.7,0-137.6,0c-6.4,0-6.4,0.1-6.5,6.3c0,1.6,0,3.1,0,4.7
			C15.9,65.2,15.9,97.1,15.9,128.9z M172.5,350.1c0,32.4,0,64.7,0,97.1c0,2.1,0.1,4.1,0,6.2c0,2.3,1.2,3.3,3.4,3.1
			c6.4-0.6,12.9-0.8,19.3-2c33.4-6,62-21.1,85.4-45.8c23.7-25,38.5-54.8,41.3-89.1c2-24.2,0.8-48.6,0.9-73c0-4-0.5-4.3-4.5-4.5
			c-1.5-0.1-3.1,0-4.7,0c-44,0-88,0-132,0c-1.6,0-3.1-0.1-4.7,0c-3.9,0.2-4.2,0.5-4.4,4.6c-0.1,1.8,0,3.6,0,5.4
			C172.5,284.9,172.5,317.5,172.5,350.1z M166.7,349.8c0-33.2,0-66.3,0-99.5c0-8.4,0.7-8.2-7.8-8.2c-11.1,0-22.3,0-33.4,0
			c-33.7,0-67.3,0-101,0c-9.3,0-8.6-0.7-8.6,8.2c0,17.9-0.2,35.7,0.1,53.6c0.1,7.7,0.6,15.5,1.8,23.2C27.7,389,75,439.4,136,453
			c8.5,1.9,17.4,2.6,26.1,3.5c4.3,0.4,4.4,0,4.6-4.1c0.1-1.8,0-3.6,0-5.4C166.7,414.5,166.7,382.2,166.7,349.8z M172.5,130
			c0,32.9,0,65.8,0,98.7c0,8,0,8.1,8,8.1c44.8,0,89.7,0,134.5,0c8.7,0,7.8-0.4,7.8-8.3c0-66.1,0-132.2,0-198.2c0-8.4,0.5-8-8-8
			c-44.8,0-89.7,0-134.5,0c-8.6,0-7.8-0.3-7.8,8.2C172.5,63.7,172.5,96.8,172.5,130z"/>
		<path id="XMLID_181_" class="st1" d="M127.5,96.5c-3.7,0.3-5.7,0.5-7.7,0.7c-4,0.4-4.9,2.1-2.8,5.6c1,1.8,2.5,3.3,3.2,5.2
			c0.5,1.4,0,3-2.3,2.8c-7.2-0.6-10.3,1.8-10.5,8.5c-0.1,3.8,0.3,7.8,1.1,11.5c1.1,5.3,3.3,6.9,8.7,6.9c2.9,0,5.3,0,7.6,2.6
			c3.2,3.6,8.2,3.2,11.3-0.5c4.4-5.2,4.1-13.4-0.7-18.4c-3.3-3.4-5.7-3-7.7,1.2c-0.5,1.2-0.7,2.6-1.3,4.6c-2.6-8.3-1-12.5,5.8-14.5
			c2.3-0.7,3.4-1.8,4.6-3.6c5.5-8.9,6.1-17.9,0.5-27.1c-3-4.9-4.9-10.3-4.2-16.2c0.1-1.1,0.8-2.2,2.3-3.2c0.2,3.2,0.4,6.3,0.8,9.5
			c0.1,0.5,1.1,1.2,1.7,1.2c0.5,0,1.3-0.9,1.3-1.4c0.4-3.3,0.3-6.8,1.1-10c0.9-3.5,2.3-6.9,4-10c0.8-1.5,3-2.2,4.5-3.3
			c0.4,0.3,0.8,0.7,1.3,1c-0.8,1.7-1.7,3.4-2.4,5.2c-1.6,4.2-2.3,8.2-0.5,12.8c1.2,3,1.7,6.7,1.1,9.8c-2.2,11.9-2.7,24.1-6.6,35.8
			c-0.7,2.2,0.1,5,0.5,7.5c0.5,3.6,1.3,7.1,1.8,10.6c0.5,4.1,0.8,8.1,1.1,12.2c0.3,3.6,0.7,7.4-1.8,10.4c-0.8,1-2.7,1.9-3.7,1.6
			c-1.8-0.5-1.8-2.2-0.8-3.7c0.4-0.7,0.9-1.3,1.1-2c0.4-1.7-1.4-3.4-2.7-2.3c-3.4,2.9-6.5,2.4-9.9,0.3c-0.3-0.2-1.5,0.9-2.1,1.6
			c-0.3,0.3-0.1,1,0,1.5c1.1,6.7-0.3,12.7-4.5,18.2c-2.4,3.2-1.2,5.2,3,5.1c4.2-0.1,8.2-1.2,11.7-3.7c1.7-1.2,3.3-2.5,5.1-3.5
			c0.7-0.4,1.8-0.1,2.8-0.1c-0.3,0.8-0.3,1.9-0.8,2.4c-5.8,6.2-5.7,13,0.6,18.6c4.6,4.2,4.7,4.5,0.3,9c-1.6,1.6-2.1,2.7-1.5,5.3
			c1.6,6.6,0.2,7.6-6.8,6.2c-1.2-0.2-2.9-1.2-3.7-0.6c-3.3,2.3-6.2,3.2-9.6,0.1c-0.4-0.4-2.4,0.3-3.3,1c-1.8,1.3-3.6,1.5-4.8-0.1
			c-1-1.3-1.7-3.3-1.5-4.8c0.5-4.5,3.8-7,8.6-7.1c1.3,0,2.6,0.3,3.9,0.1c4.5-0.6,7.8-6.9,5.7-10.9c-0.4-0.8-1.3-1.6-2.2-2
			c-4.2-1.8-10.7,0.3-12.9,4.2c-1.5,2.7-2.8,5.3-6.3,6.7c0-1.2-0.2-2,0-2.5c1.4-2.4,1.5-4.5-1.2-5.9c-2.7-1.5-4.4,0.4-5.9,2.2
			c-1,1.2-1.6,2.7-2.6,3.9c-0.7,0.9-1.8,1.4-2.8,2.3c-0.3-1.1-0.7-1.7-0.5-2c2.8-3.8,4.8-7.3-0.4-11c-1.7-1.2-1.7-3.6-0.6-5.7
			c0.9-1.8,1.7-3.8,2.2-5.7c0.2-0.8,0-2.2-0.6-2.7c-0.6-0.5-2.1-0.7-2.8-0.3c-4.9,3-10,5.9-10,13.1c-0.6-1.5-1.5-3-1.8-4.6
			c-1-4.5-2.4-5.5-6.7-4.2c-1.4,0.4-2.8,1.3-4,2.2c-1.6,1.3-2.1,3-0.7,4.8c1,1.3,2.2,2.1,4,0.9c0.9-0.6,2.1-0.9,3.9-1.7
			c-0.6,4-2.3,5.9-4.8,7.5c-5.6,3.6-5.7,5.3-0.1,8.4c2.6,1.5,3.8,2.9,3.6,5.9c-0.5,5.9-4,8.3-9.2,5.1c-3.4-2.1-5.2-2.1-8.1,0.3
			c-1.4,1.2-4.2,2.3-5.6,1.7c-4.1-1.9-7.2-1.1-10.8,1.3c-2.5,1.7-4.1,0.2-3.7-3c0.7-5.5,0.7-5.5-4.5-8.3c1.2-2.1,3.2-4.2,3.4-6.5
			c0.1-2.1-1.7-4.3-2.9-7c5.4,2,11.5,1.8,13.7,8.5c0.3,0.8,1.5,1.4,2.4,1.7c3.5,0.9,9.8-4.1,10.1-7.8c0.2-2.7-0.9-3.6-4.2-3.7
			c-1.2,0-2.4-0.4-3.6-0.6c0.6-1,0.9-2.3,1.7-2.9c2.4-1.8,1.5-3.4,0.1-5.2c-2.8-3.7-5.5-7.5-8.2-11.2c-1.2-1.6-1.8-3.2-0.2-4.8
			c1.6-1.6,3.1-1.1,4.8,0.2c0.9,0.8,2.3,1.7,3.2,1.4c4.9-1.1,9.9-2.2,14.6-3.9c4.6-1.6,9.1-3.8,13.5-5.9c4.3-2.1,4.2-2.9,3.1-7.8
			c-1-4.5-1.3-9.1-2.1-13.6c-0.2-1.1-1.1-2.2-1.7-3.2c-1,0.6-2.2,1.1-3,1.9c-2.4,2.3-3,6.7-7.9,6.1c-0.6-0.1-2,2.2-2.4,3.6
			c-0.9,3.5-3.2,5.7-6.9,7c0.7-1.4,1.5-2.8,2.1-4.2c0.9-2,1.4-4.4-0.6-5.6c-1.1-0.7-3.4-0.1-4.9,0.5c-2.5,1-4.6,2.7-4.4,5.8
			c0.3,4.5-2.8,6.9-5.4,9.8c-4.6-3.7-4.5-3.7-9.8-1.1c-1.4,0.7-2.8,1.1-4.7,1.9c-1.5-3.5-1.7-6.7-0.2-10.2c0.8-1.8,0.6-3.7-2.4-3.1
			c-0.3,0.1-1.3-1.5-1.2-1.9c0.5-1.2,1.6-2,2.2-3.2c1.9-3.7,1.4-4.5-4.2-6.2c2.2-3.9,4.1-7.8,6.5-11.3c2.6-3.8,5.6-3.8,7.8,0.2
			c1.4,2.6,1.9,5.8,2.8,8.8c0.6,2,1.7,3.3,3.9,2.1c6.7-3.5,13.5-6.7,19.8-10.6c5.8-3.6,5.4-12.9-0.3-16.3c-0.6-0.4-1.8,0-2.7,0.3
			c-1.1,0.3-2,1-3.2,1.5c-1.5-2.9,2-6.2-1.8-8.1c-3.7-1.9-4.7,2.4-7.5,3c-1.8-2.1,0.4-3.6,1-5.3c1.7-4.5-0.3-7.2-5.3-6.9
			c-2,0.1-2.9-0.3-3-2.3c0-0.8,0.2-1.6-0.1-2.3c-1.4-4.7-4-5.3-8.4-2.2c-0.4,0.3-0.9,0.2-1.7,0.4c-1.1-3.5-2.6-6.9-3.1-10.5
			c-0.2-1.6,1.8-3.5,3-5.1c2.9-3.5,2.9-3.3-0.9-6.6c-0.5-0.5-0.5-2.7,0-3c1.5-0.9,3.6-2.1,4.9-1.7c4.1,1.3,7.5-0.6,11-2.1
			c3.3,4.4,3.6,8.9,1.8,13.4c-2.3,6-0.5,10.7,4.2,14.4c6.7,5.3,13.3,10.7,20.3,15.7c3.7,2.6,5.2,2.1,8.1-0.8
			c4.2-4.1,3.7-6.3-1.7-8.1c-1.2-0.4-2.5-0.4-3.8-0.4c-1.3,0-3,2.2-3.8-0.2c-0.3-1.1,0.6-3,1.6-4c2.4-2.5,1.3-4.6-0.2-6.9
			c-1.8-2.8-4-1.4-6.2-0.7c-1.5,0.5-2.8,1.3-4.3,1.8c-4.7,1.4-8.9-1.7-7.9-6.3c1.1-5.3,3-10.3,0.9-15.7c-0.1-0.2,0.5-1.1,0.9-1.1
			c0.6-0.1,1.8,0,1.9,0.4c1.5,3.3,2.4,6.7,1.1,10.5c-0.8,2.2-0.8,4.6,1.7,6.2c4.6,2.8,8.3,0.8,7.8-4.7c-0.4-4.1,1.2-4.4,4.3-4.1
			c4.1,0.3,7.5-0.9,10.6-3.8c1.5-1.4,4-1.8,6.2-2.4c1.7-0.5,3.6-0.5,5.3-0.9c5.1-1.1,9.7-0.8,13.3,3.7c2.2,2.7,3.8,1.7,5-1.2
			c0.9-2.4,2.6-1.6,3.2-0.1c0.8,2.1,1,4.5,1.1,6.7c0.1,2.6,0,5,2,7.2c2.9,3.3,0.8,7.4,1.8,11.2c-3.7,0.5-2.1-5.7-5.5-3.4
			c-0.9,0.6,0.4,4.2,0.2,6.3C121,86,122.5,91,127.5,96.5z M86.2,102.1c2.5-0.3,3.4-0.3,4.3-0.5c3.1-0.5,4.5,0.5,3.9,3.1
			c-0.3,1.2-1.1,2.3-1.5,3.5c-0.2,0.5,0.1,1.6,0.4,1.8c0.5,0.3,1.8,0.2,2-0.1c1.3-2.2,2.4-4.4,3.5-6.7c1.4-2.9-2.3-2.9-2.8-4.7
			c-0.2-0.9-1.1-1.6-2-2.6C91.6,97.7,89.5,99.4,86.2,102.1z M98.3,63.2c3.4,0.1,5-0.9,5.5-3.3c0.4-2-1.3-3.4-4-3.5
			c-2.5-0.1-4.3,1.3-3.8,3.5C96.4,61.4,97.8,62.5,98.3,63.2z M100,96.3c0.4,0.4,0.9,0.8,1.3,1.2c1.2-0.8,2.5-1.6,3.7-2.5
			c1-0.9,3.4-1.6,1.4-3.3c-0.8-0.7-3.2-0.4-4,0.3C101.2,92.9,100.8,94.8,100,96.3z M89.2,67.3c-1.8-1.1-3.7-2.3-5.5-3.4
			c-0.2-0.1-1,0.4-1.2,0.8c-1,3,1.9,3.1,3.4,4.2c0.5,0.4,1.4,0.3,2.1,0.2C88.3,69.1,88.5,68.4,89.2,67.3z M105.7,99.5
			c-1.3,4.5,0,6.5,2.5,8.8C109.6,105,107.8,103.1,105.7,99.5z"/>
		<path id="XMLID_174_" class="st1" d="M216.3,382.3c-5.5,0.9-10.3,2.4-15.1,2.3c-3.6-0.1-7.6-1.7-10.8-3.6
			c-4.8-2.9-5.1-7.8-0.9-11.7c5-4.7,11.1-7.6,17.7-9.1c2-0.5,3.9-0.9,6.7-1.6c-1-2-1.7-3.5-2.6-4.9c-5.1-8.8-5.2-17.7-0.3-26.6
			c0.6-1.1,1.3-2.2,2-3.4c4.2-7.7,2.1-14.7-5.8-18.7c-2.8-1.4-5.8-2.4-8.4-4c-7.7-4.7-7.4-13,0.7-17c8.8-4.3,18.4-5.4,28-3.9
			c8.4,1.3,16.7,3.5,25.2,4.7c5.9,0.8,11.9,0.8,17.8,0.4c2.3-0.1,4.6-1.9,6.7-3.2c0.5-0.3,0.7-2,0.4-2.7c-0.4-0.7-1.6-1.5-2.4-1.4
			c-2.6,0.2-5.1,0.9-7.7,1.1c-2.3,0.2-4.7,0.3-6.9-0.1c-2.2-0.4-3.9-2.1-3.6-4.4c0.2-1.4,1.7-3.4,3-3.8c4.9-1.5,10-2.8,15.1-3.4
			c5.3-0.6,9.8,2.6,11,6.8c1.3,4.8-0.7,8.7-4.2,11.7c-3.4,3-7.7,4-12.2,4.3c-9.7,0.6-19.1-0.7-28.4-3.3c-7-2-14.1-3.7-21.4-2.9
			c-4,0.5-8,1.8-11.8,3.3c-2.7,1.1-4.9,3.4-3.9,6.8c1,3.4,3.5,5.7,6.9,6.8c0.8,0.2,2.5-0.8,3-1.7c3.1-5.8,8.4-6.7,14-6
			c4.6,0.6,9.3,1.4,13.5,3.2c5.8,2.4,5.9,6.9,0.8,10.5c-4,2.8-8.5,3.4-13.3,2.7c-3.2-0.5-6.5-0.9-10-1.3c1.5,7.3,1.5,7.3,7,5.4
			c7.6-2.6,7.9-2.5,13.8,4c0.8,0.9,1.9,2,3,2.2c6.4,0.8,9.1,5.2,11.2,10.5c0.5,1.2,2.4,3.1,2.8,2.9c3.6-1.9,5.8-0.3,7.9,2.5
			c0.4,0.6,1.8,0.8,2.6,0.7c0.4-0.1,0.9-1.3,0.9-2c0-3.4-0.5-6.7-0.3-10.1c0.4-4.6,1-9.2,2-13.7c0.4-1.8,1.9-3.7,3.4-5
			c3.1-2.5,6.5-1.4,8.2,2.3c2.4,5.1,2.3,10.4,1.2,16.2c-1.3-0.5-2.1-0.6-2.5-1c-2.3-2.5-4.4-1.9-5.2,1c-2.1,7.2-3.7,14.5-5.5,21.7
			c-0.6,2.4-1.1,4.8-3.1,7.3c-0.6-1.5-1.2-3-1.7-4.5c-1-3.5-1.6-7-2.9-10.4c-0.7-1.8-2.6-1.9-3.5-0.2c-1.2,2.2-1.9,4.8-2.9,7.1
			c-0.4,0.8-1.1,1.5-1.7,2.2c-0.8-0.9-2.1-1.7-2.2-2.6c-0.4-3.6-0.2-7.2-0.6-10.8c-0.2-2.3-0.9-4.5-1.8-6.6
			c-0.3-0.7-1.6-1.5-2.5-1.4c-0.8,0.1-1.8,1-2.1,1.8c-0.6,1.4-0.6,3.1-1.3,4.4c-0.7,1.2-2.7,2.9-3.2,2.6c-1.4-0.7-2.9-2.2-3.1-3.6
			c-0.5-2.5,0.3-5.2-0.1-7.7c-0.3-1.8-1.3-3.9-2.7-5.1c-1.7-1.5-4.1-2.3-6.4-0.6c-2.3,1.7-3.2,4.1-2.3,6.8c0.7,1.9,1.9,3.7,2.8,5.5
			c1.8,3.4,3.8,6.7,5.5,10.3c2.7,5.9,2.6,11.9-1,17.9c3.6,1,5.4-1.5,7.8-2.1c9.7-2.6,16.1-0.8,19.9,9.2c2.4,6.3-0.5,12.2-7,13.9
			c-3.2,0.8-6.6,0.8-10,0.7c-4.7-0.1-4.7-0.1-5,4.3c-0.4,6.2-0.9,12.4-1.7,18.5c-0.4,2.8-1.3,5.6-2.4,8.2c-2.6,6-6.6,6.7-10.4,1.6
			c-4.4-5.8-7.7-12.3-7.4-20C216.4,389.1,216.3,385.8,216.3,382.3z M245.2,377.2c1.8-0.4,3.9-0.6,5.8-1.2c5-1.7,6.1-7.4,2.4-11.1
			c-4-3.9-14.8-3.3-18.4,1.1c-3.3,3.9-1.9,8.7,3.2,10.1C240.3,376.6,242.7,376.8,245.2,377.2z M220.3,326.5
			c-5.2,11.9-5.1,22.2,0.4,32.4c1.4,2.6,3.3,2.7,4.4,0.1c1.2-2.8,2.3-5.8,2.5-8.8C228.1,342,225.3,334.7,220.3,326.5z M210,366.1
			c-3.8,0.1-7.2,1.7-9.6,5.1c-2.3,3.3-1.2,6.4,2.5,8c4.4,2,8.2,0.4,11.5-2.2c2.1-1.6,5-4.3,4.8-6.3c-0.3-3.3-4.4-3.7-7.3-4.5
			C211.4,366.1,210.8,366.2,210,366.1z M227.1,377.5c-4.4,8.5-2,16.8,0.8,25.1c0.1,0.4,1,0.9,1.2,0.8c0.8-0.5,1.9-1,2.1-1.8
			C233.8,393.1,232.8,385,227.1,377.5z M227.8,298.9c-2.7,0.7-7.7-0.9-7.9,2.4c-0.3,4.8,5.1,2.9,7.9,3.5c4.6,1.1,9.2-1.1,8.4-3
			C234.7,298.2,231,299.4,227.8,298.9z"/>
		<path id="XMLID_173_" class="st1" d="M302,297.5c2.2,3.3,1.9,7.3,0.8,11c-2.5,8.4-5.1,16.7-7.9,25c-2.3,6.5-6.2,12.5-5.8,19.8
			c0.1,2-1.2,3.3-3.4,3.3c-2.7,0-4.5-2.1-3.3-4.7c5.3-11.4,4.1-23.8,5.3-35.7c0.4-3.6,1.3-6,4.3-8.3
			C295.7,305.1,298.6,301.2,302,297.5z"/>
		<path id="XMLID_172_" class="st1" d="M282.2,371.7c-2.7-4.6-2.5-7.6,0.6-10.1c1.7-1.4,3.4-1.1,4.8,0.4c1.3,1.5,1.9,3.2,0.2,4.8
			C286.1,368.5,284.1,370,282.2,371.7z"/>
		<path id="XMLID_162_" class="st1" d="M60,322.6c3.6,0,7.1,0,10.7,0c2.7,0,4.5,0.5,4.5,3.8c0,0.9,1.3,1.8,2,2.7
			c0.8-0.8,2.3-1.6,2.3-2.4c0-3.6,1.9-4.4,4.9-4.2c2.8,0.2,3.4-1.7,3.4-4c0-2.6,0-5.2,0-7.8c-0.1-4.3-0.1-4.5-5-5.4
			c-1.8-0.4-2.8-1-2.9-2.9c0-2.8-0.1-5.7,0.1-8.5c0.1-0.7,1.3-2,1.8-2c6.4,0.9,9-4,12.4-7.8c0.9-1,1.6-2,2.9-3.8
			c2.5,2.8,4.7,4.9,6.5,7.3c2,2.6,4.2,4.5,7.8,4.1c3.2-0.4,4,1.5,3.8,4.3c-0.1,1,0,2.1,0,3.1c-0.1,4.8-0.1,4.7-5.2,6.4
			c-1.1,0.4-2.5,1.8-2.7,2.9c-0.4,2.8-0.2,5.7-0.2,8.5c0.1,4.6,0.1,4.7,5,5.6c2.2,0.4,3.2,1.3,3.2,3.4c0,1.6,0.4,3.4,2.4,3
			c0.8-0.2,2-1.7,2-2.6c0-3.3,1.8-3.9,4.5-3.8c3.6,0.1,7.1,0,10.8,0c-0.2-1.2-0.1-1.9-0.4-2.1c-1.7-0.9-4.6-1.2-5-2.5
			c-0.8-2.3-0.3-5.1-0.2-7.7c0-0.5,1-1.5,1.5-1.4c4.4,0.2,7.2-2.5,10-5.1c1.6-1.5,3.1-1.6,4.8-0.2c3,2.4,5.4,5.7,10,5.3
			c0.5,0,1.5,0.9,1.5,1.4c0.2,2.6,0.2,5.2,0,7.7c0,0.5-0.9,1.5-1.4,1.5c-5.9-0.1-4.2,3.5-3.6,6.8c1.6,9.7,3.1,19.4,4.6,29.1
			c0.3,1.8,0.4,3.6,0.6,5.4c0.2,2.2-0.7,3.4-3,3.4c-4.4,0-8.8,0.2-13.2,0c-3.5-0.1-6.5,0.7-9.2,3.1c-4.3,3.8-8.8,7.3-13.3,10.7
			c-2.5,1.9-3.6,4.1-3.5,7.3c0.2,4.4,0,8.8,0,13.2c0,2.2-1,3.3-3.2,3.3c-9.6,0-19.2,0-28.8,0c-2.6,0-3.7-1-3.7-3.7
			c0.1-4.4-0.1-8.8,0-13.2c0.1-2.9-0.9-4.8-3.2-6.6c-4.9-3.8-9.6-8-14.6-11.6c-1.9-1.4-4.6-2.3-7-2.4c-5.6-0.3-11.3-0.1-17.6-0.1
			c-0.1-8,1.9-15.2,2.8-22.5c0.8-6.2,1.8-12.3,2.8-18.4c0.4-2.2-0.2-3.5-2.6-3.6c-5.3-0.2-3.2-4.2-3.6-6.9c-0.4-2.8,0.8-4.1,3.8-4.4
			c2.1-0.2,4.2-1.6,6-2.9c4.7-3.6,4.5-3.6,9.5,0.2c1.8,1.3,4,2.5,6.1,2.8c2.6,0.4,3.8,1.4,3.4,3.9c-0.4,2.5,1.7,5.9-2.3,7.3
			c-1.1,0.4-2.3,0.5-3.5,0.8C59.9,321.2,59.9,321.9,60,322.6z M101.5,390.5C101.5,390.5,101.5,390.5,101.5,390.5
			c0-1.8-0.1-3.6,0-5.4c0.1-2.8-1.7-3.3-4-3.3c-2.4,0-4,0.5-4,3.3c0.1,3.3,0.1,6.7,0,10c-0.1,2.9,1.1,4.1,4,4.1c3,0,4.2-1.2,4-4.1
			C101.4,393.5,101.5,392,101.5,390.5z M146.4,355.1c-0.1-0.9,0-2-0.5-2.8c-0.5-0.7-1.7-1.4-2.5-1.2c-3.3,0.5-2.8,3.3-2.5,5.4
			c0.2,1.2,1.2,2.6,2.3,3.3c0.4,0.3,2.2-0.7,2.9-1.6C146.6,357.6,146.3,356.3,146.4,355.1z M100.1,347.8c-0.8-1.5,1.1-5-2.9-4.7
			c-3.1,0.2-2.2,3.1-2.1,4.8c0.1,2.2-1.6,5.9,2.6,5.8C101.2,353.6,99.4,350.1,100.1,347.8z M53.8,354c-0.4-2,0.2-4.7-3-4.4
			c-2.6,0.2-2.2,2.5-2.2,4.2c0,1.2,0.1,2.6,0.6,3.7c0.5,1.3,3.3,1.4,3.9,0.1C53.5,356.5,53.6,355.2,53.8,354z M125.1,341.3
			c-0.4-0.5-1.4-1.7-2.4-2.8c-0.7,1.5-1.6,2.8-2,4.4c-0.3,0.9,0,2,0.4,2.9c0.2,0.6,1.2,1.4,1.6,1.3c0.8-0.2,1.7-0.9,2-1.7
			C125.1,344.5,124.9,343.4,125.1,341.3z M74.1,342.3c-0.5-0.9-1.1-3.5-1.9-3.6c-3.2-0.2-2.2,2.6-2.4,4.4c-0.1,1,0.1,2.1,0.5,2.9
			c0.2,0.5,1.2,0.8,1.9,0.9c0.3,0,1-0.5,1.1-0.9C73.7,345.2,73.8,344.1,74.1,342.3z M141.7,325.3c0.1,0.8,0,1.9,0.3,2.8
			c0.2,0.6,0.8,1.1,1.3,1.6c0.6-0.6,1.7-1.2,1.8-1.8c0.2-1.7,0.1-3.5-0.1-5.2c-0.1-0.5-1-1.2-1.6-1.1c-0.5,0-1.2,0.8-1.4,1.4
			C141.7,323.5,141.8,324.4,141.7,325.3z M53.5,324.7c-0.5-0.7-1.4-2-2.3-3.3c-0.5,1.3-1.2,2.6-1.5,4c-0.2,1,0,2.1,0.3,3
			c0.2,0.5,1,0.9,1.6,1.1c0.3,0.1,1-0.4,1.1-0.8C53,327.7,53.1,326.7,53.5,324.7z"/>
		<path id="XMLID_161_" class="st1" d="M76.8,294.1c-3.1,2.2-5,3.5-6.9,4.9c-5.2,3.9-5.2,3.9-10-0.4c-2.7-2.4-5.4-4.8-8.1-7.2
			c-3.8-3.4-4.5-9.8-1.4-13.9c1.9-2.5,4.7-3,7.5-1.3c0.9,0.5,1.7,1.2,2.3,2c1.6,2.3,2.8,2.9,5.4,0.7c2.5-2.1,4.6-1.1,4.4,2.1
			C69.8,286.5,71.7,290.6,76.8,294.1z"/>
		<path id="XMLID_160_" class="st1" d="M118.8,294.3c4-3.9,6.6-8,6-13.7c-0.3-2.5,2.1-3.7,4.2-1.8c2.3,2.1,3.4,1.8,5.4-0.3
			c3.9-4,6.6-4.2,9.2-1.6c3.3,3.3,3.9,10.4,0.7,13.4c-4.1,3.9-8.5,7.5-12.9,11c-0.9,0.7-3,0.6-3.9,0
			C124.6,299.2,122,296.8,118.8,294.3z"/>
		<path id="XMLID_138_" class="st1" d="M280.4,145.3c-0.5,5.2-1.1,10.3-1.5,15.5c-0.1,1.8-0.2,3.7,0.3,5.4c0.3,1,2,2.7,2.4,2.5
			c4.4-2.1,7,1.3,10.7,4.1c-0.1-2.5-0.1-3.9-0.3-5.2c-0.6-4.1-1.7-8.1-2-12.2c-0.2-2.2,0.6-4.7,1.6-6.7c1.4-2.8,4.8-3.5,7.3-2
			c2.8,1.7,3.2,4.2,1.1,7.3c-0.4,0.6-0.9,1.3-1.6,1.7c-3.8,2.9-3.7,6.8-1.8,10.4c2,3.8,4.5,7.5,7.3,10.9c3.5,4.3,3.8,4.2,0.3,8.2
			c-1,1.1-2.7,1.9-1.5,3.7c1.1,1.7,2.7,2.4,4.7,1.3c1.3-0.7,2.8-1.1,3,0.6c0.2,1.2-0.6,3.4-1.5,3.7c-3.2,1.3-6.3,3.6-10.3,1.8
			c-1.4-0.6-3.5-0.3-5,0.4c-2.9,1.3-5.7,3.2-9,5.2c3.2,2.6,6,1.1,8.8,0.2c0.6-0.2,1.4,0.3,2.1,0.4c-0.3,0.9-0.3,2.2-0.9,2.6
			c-3.3,2.3-7.1,3.1-11.1,2.6c-2.8-0.3-5.1-0.6-4-4.7c0.6-2-5-6.8-7.4-6.2c-3.7,0.9-7.3,2.3-10.9,3.6c-0.3,0.1-0.8,1-0.6,1.3
			c0.3,0.6,1,1.5,1.3,1.4c2.2-0.5,4.3-1.4,6.4-1.9c1.1-0.3,2.2-0.1,3.4-0.2c-0.4,1.1-0.6,2.5-1.4,3.3c-1.6,1.7-4.5,2.7-5,4.6
			c-1,3.5-2.9,5.4-6.1,6.2c-3.8,0.9-7.7,1.1-11.3-1c-0.7-0.4-1.1-1.5-1.7-2.3c0.9-0.2,1.9-0.9,2.6-0.6c2.7,1,5.4,1.9,8.2,0.2
			c1.6-1,2.8-2.2,1.3-4.4c-1.3-1.8-2.3-3.9-3.1-6c-1.6-4.4-1.6-4.5,3-5.7c1.9-0.5,3.6-0.9,3.3-3.4c-0.3-2.1-2.3-3.3-4.7-2.6
			c-1.7,0.5-3.2,1.7-4.8,2.4c-4.3,1.8-8.5,4.9-12.9,5.1c-5.1,0.2-10.9,0.9-15.5-2.4c-2.7-1.9-5.5-2.4-8.7-2.6
			c-2.2-0.1-4.6-0.8-6.6-1.7c-3.8-1.8-7.5-4-11.6-6.3c1.6-1.7,4.2-0.8,6.5-1c3.1-0.2,4.2-1.5,3.5-4.5c-0.5-2-1.2-4-2.4-5.7
			c-1-1.4-1.7-2.5-0.7-4.1c2.3-3.4,0.8-6-1.4-8.9c-9.4-12.2-15.4-25.9-15-41.6c0.2-6.4,1.6-12.9,3.5-19c2.9-9.4,2.5-11-6.6-14
			c-0.6-5.2,2.9-6.5,6.9-7.6c13.7-3.7,27.4-7.6,41.2-11.3c2-0.6,4-1,6-1.7c4.3-1.4,5.7-3.5,5-7.3c-0.6-3.7-3-5.6-7.3-5.2
			c-2.2,0.2-4.8,0.9-6.3,2.4c-3.3,3.2-6.6,3.3-10.6,2.1c-6.2-1.9-12.3-0.2-18.3,1.3c-2.5,0.6-4.9,1.6-5.7,4.9c3.5,2.6,6.6,1.8,9.6-1
			c1.3-1.2,2.8-1.7,3.8,0.2c0.9,1.8,0.7,3.7-1.5,4.5c-5.3,1.8-10.7,2.1-15.9,0.1c-3.9-1.5-4.6-4.6-2.4-8.2c2.2-3.6,5.9-5,9.7-5.9
			c3.3-0.8,6.6-1.3,10-1.7c2.9-0.3,4.9-1.2,5.4-4.4c0.6-3.2,3.1-4,5.9-3.8c3.6,0.3,7.2,0.8,10.7,1.6c4.9,1,9.3,1.7,13.9-1.9
			c3.9-3.1,6.7-1.2,6.7,4c0,2-0.6,4.1-1.1,6.1c-1.6,6.7,0.5,9,7,7.2c11.5-3.1,22.9-6.5,34.4-9.8c3.7-1.1,7.5-2.2,11.2-3.1
			c1.1-0.3,2.4,0,3.6,0.1c-0.2,1.4-0.1,3-0.8,4.1c-1,1.7-2.4,3.4-4,4.4c-2.6,1.7-3.7,3.9-4.3,6.9c-4.5,23.6-9.1,47.2-13.7,70.8
			c-0.8,4.2-2.1,8.4-3.1,12.5c0.2-2.6,0.1-5.2,0.6-7.7c3.8-20.6,7.8-41.1,11.7-61.7c0.9-4.8,1.6-9.7,2.1-14.6c0.1-1.3-1-2.6-1.6-4
			c-1.1,0.5-2.4,0.8-3.3,1.6c-7,6-12.1,13.5-15.7,21.9c-6.2,14.5-7.2,29.6-3.9,44.9c1.6,7.5,3.3,15.1,7.4,22
			C278.7,147,279.5,146.2,280.4,145.3z M230,129.6c-0.3,0-0.7,0.1-1,0.1c-1.5-4.9-3-9.8-4.5-14.7c-0.2-0.7,0.2-1.5,0.4-2.3
			c1-3.4,2.1-6.8,3-10.2c0.9-3.2,1.7-6.5,2.1-9.8c0.1-0.9-1.1-2.2-1.9-2.9c-0.3-0.2-1.9,0.6-2.3,1.3c-3.5,5.6-5.8,11.5-6.5,18.1
			c-1,10.5,0.6,20.6,4.7,30.4c2.9,7,3.1,7.2,10.1,4.9c1-0.3,2-0.5,3-0.8c6.5-2,6.6-2.4,4.6-8.6c-0.7-2-1.3-3.9-1.8-5.9
			c-2.7-10.6-1.3-21,1.5-31.4c0.6-2.3,1.1-4.7,1.7-7.1c-2.6,3.5-4.8,6.9-6.4,10.7c-2.9,7.3-7,14.3-6.3,22.6
			C230.6,125.8,230.2,127.7,230,129.6z M274.2,151.6c-0.5-2.2-0.7-3.4-1.1-4.6c-2.4-8.2-5.2-16.2-7.3-24.5
			c-3.5-14.3-1.9-28.1,4.6-41.4c4.2-8.7,9.8-16.4,16.7-23.1c0.7-0.7,0.9-2.1,1.3-3.1c-1.4,0.1-2.8-0.1-4.1,0.3
			c-0.9,0.3-1.6,1.3-2.3,2.1c-6.2,7.9-12.8,15.6-18.4,23.9c-2.9,4.4-5.1,9.8-5.9,15c-2.5,15-1,29.9,3.8,44.3
			C263.4,146.1,267.6,149.2,274.2,151.6z M260.1,143.4c-7.5-21.9-9.5-43.2,1-64.3c-4.9-1.5-8-0.4-10,3.3c-9,16.1-11.1,33.1-6.1,50.8
			C247,140.1,252,143.3,260.1,143.4z M193.4,121.5c0.7,13.2,5,25.2,12.7,36c1.1,1.5,2.7,3.2,4.4,1.5c1.3-1.2,2.4-3.5,2.2-5.1
			c-0.2-1.9-1.9-3.6-2.9-5.4c-7.1-12.8-10.4-26.2-7.5-40.9c2-9.8,6.2-18.5,12.2-26.4c1.4-1.8,2.9-3.6,4.2-5.5
			c0.3-0.4,0.1-1.6-0.2-1.9c-0.4-0.4-1.4-0.4-2-0.2c-0.7,0.2-1.3,0.8-1.9,1.3C201.7,87.7,194.2,103.1,193.4,121.5z M214.9,88.1
			c-0.8,0.8-2.3,1.9-3.1,3.4c-4.3,6.9-7.1,14.4-6.4,22.7c0.6,6.4,2.3,12.7,3,19c0.7,6.2,5.9,7.2,10.1,9.4c1.5,0.8,2.9-1,2.4-2.7
			c-0.2-0.7-0.6-1.4-0.9-2.1c-6.1-12.2-5.7-24.9-3.1-37.8c0.5-2.2,1.8-4.3,2.4-6.5C220.1,90.6,218,87.7,214.9,88.1z M260.4,186
			c2.5-0.2,4.9,0.1,6.9-0.6c3.3-1.2,4.9,0.2,6.2,2.8c1.5,3,3.1,5.9,6.5,7.3c3.4,1.4,5.1,1.2,6-2.3c1-3.9,3.5-4.9,6.7-5.1
			c3.8-0.1,6.3-2,8.4-4.8c1.1-1.5,1.2-3.1-0.5-3.9c-1.7-0.9-4.2-2.3-5.6-1.7c-5.3,2.4-10.1-0.4-15-1c-1.8-0.2-3.4-3.1-5.2-0.4
			c-0.1,0.2,2.3,2.1,3.7,3.1c0.9,0.6,2,1,3,1.5c-1.2,1.2-2.3,1.7-2.9,1.3c-3.4-2-7.7-2.5-10.1-6.5c-1-1.7-3.2-2-5.5-0.9
			c-2.2,1-2.1,2.4-2,4.4C261.2,181.2,260.7,183.2,260.4,186z M241.9,147.9c0.5,2.9,0.7,4.5,1.2,6.1c0.2,0.8,0.9,1.6,1.4,2.3
			c2.8-2.3,6.1,3.7,8.9-0.4c0-0.1,1.4,0.7,2.1,1.2c1.1,0.9,2.2,2.5,3.3,2.6c2.3,0.1,3.2,4.2,6.5,1.5c3.7-3,1.9,4,4.9,3.4
			c0.5-0.1,1.1,0.3,1.5,0.1c1.3-0.7,3.3-1.4,3.5-2.4c0.3-1.5-0.1-3.9-1.2-4.7c-4.3-3.2-8.8-6.3-13.6-8.7c-6.6-3.4-13.6-5-20.7-1.4
			c-2.6,1.3-7.4-0.1-7.6,3.8c-0.1,2.9,2.5,5.9,4.1,8.7c0.4,0.7,1.7,0.8,2.5,1.2c0.4-0.9,1-1.7,1.1-2.6
			C240.1,155.4,238.9,152,241.9,147.9z M253,169.3c-3.3,3.6-6.8,5.4-11.2,3.1c-2-1.1-3.9-0.8-5.3,1.4c-1.4,2.2-1.8,4.1,0.4,6.1
			c1.8,1.6,3.2,3.4,1.7,6c-0.5,0.9-0.3,2.2-0.4,3.3c1.2-0.1,2.6,0.2,3.6-0.3c4.7-2.2,4.8-3.9,0.6-7.9c-0.5-0.5-0.6-1.3-1.3-2.9
			c4.6-0.2,8.8-0.3,13-0.5c1.2-0.1,2.4-0.2,3.5-0.3c-0.3-1.1-0.5-2.3-1.1-3.3C255.8,172.8,254.8,171.7,253,169.3z M215.3,169.4
			c-1.6,1.2-3.2,1.8-3.9,3c-0.4,0.8,0,2.6,0.7,3.4c1.8,2.1,3.7,4.4,6,5.9c3.3,2.2,6.1,4.5,8.1,8c0.8,1.4,2.6,2.4,4.1,3.2
			c0.5,0.3,1.8-0.5,2.5-1.1c0.3-0.3,0.1-1.5-0.2-2c-1.1-1.4-2.4-2.7-3.7-3.8c-4.4-3.6-8.5-7.3-9.7-13.3
			C219,171.4,216.8,170.5,215.3,169.4z M256.1,74.9c3.2,1.3,5.9,1.1,7.9-1.5c3-3.9,5.8-7.9,8.5-12c0.5-0.8,0-2.2-0.1-3.3
			c-0.9,0.2-2.2,0.1-2.8,0.6C264.6,63.5,259.6,68.3,256.1,74.9z M259.7,64.1c-3.1-2.4-5.9-1.3-8.6-0.6c-5.8,1.4-6.7,5.1-2.6,9.3
			c1.7,1.8,3.7,2.2,5.2,0.1C256,70.1,257.8,67.1,259.7,64.1z M219,81.3c8.2-0.1,12.8-4.4,14.8-12.8C226.4,69.7,223.5,75.6,219,81.3z
			 M230.5,178.4c0.4-0.1,0.9-0.3,1.3-0.4c0.2-3.8,0.5-7.5,0.5-11.3c0-1.4-0.6-3.1-1.5-4.2c-0.6-0.8-2.3-1.3-3.2-1
			c-0.8,0.3-1.6,2-1.5,2.9c0.3,2.8,0.8,5.5,1.6,8.2C228.2,174.7,229.5,176.5,230.5,178.4z M233.8,76.8c0.3,0.7,0.6,1.4,0.8,2
			c3.1-0.5,6.3-0.8,9.4-1.5c2.5-0.6,2.2-2.4,0.9-4.1c-2.1-2.7-3.8-3.1-6.5-1.1C236.7,73.5,235.3,75.2,233.8,76.8z M227.1,151.5
			c-1.6-2.5-2.3-5-3.7-5.4c-2.4-0.8-5.3-0.2-7.9-0.2c0.1,0.9-0.1,2.2,0.4,2.6c2.2,1.6,4.5,3.2,7,4.4
			C223.6,153.2,225,152.2,227.1,151.5z M251.2,164.7c-1.4-1.8-2.5-3.1-3.5-4.4c-0.9,1.3-2.6,2.7-2.6,4c0,1.4,1.6,2.8,2.5,4.1
			C248.7,167.4,249.8,166.2,251.2,164.7z M264.2,168.7c-1.9-1.8-2.9-3.2-4.3-3.7c-0.5-0.2-2.6,1.8-2.6,2.7c0.1,1.4,1.4,2.8,2.2,4.2
			C260.9,171,262.1,170.1,264.2,168.7z M218.6,164.9c-1-1.3-1.4-2.4-2.1-2.6c-0.6-0.2-2,0.6-2.1,1.1c-0.1,0.7,0.5,1.9,1.1,2.2
			C216,165.9,217.1,165.3,218.6,164.9z M240.8,167.8c-0.9-1.4-1.3-2.7-1.9-2.8c-0.8-0.1-1.7,0.7-2.5,1.2c0.4,0.8,0.6,1.9,1.3,2.3
			C238.2,168.7,239.3,168.2,240.8,167.8z M196.6,90.3c0.9-1.6,1.7-2.6,1.9-3.6c0.1-0.3-1.5-1.4-2.1-1.3c-0.7,0.2-1.5,1.3-1.5,2
			C194.7,88.2,195.6,88.9,196.6,90.3z"/>
		<path id="XMLID_137_" class="st1" d="M186.6,198.7c2.7-3.8,5.8-3.4,8.8-2.8c1,0.2,2,1.5,2.5,2.5c0.6,1.1,0.6,2.5,1.1,3.7
			c0.9,2.2,2.9,3.3,5,2.6c1.4-0.5,3.3-2.3,3.3-3.5c0-4.2,2.5-4.5,5.5-4.5c2.5,0,5,0,7.7,0.6c-4,1.9-7.2,4.1-9.5,8.1
			c-2.8,4.7-12.5,4.3-15.7,0C191.6,200.3,191.3,200,186.6,198.7z"/>
		<path id="XMLID_136_" class="st1" d="M235.2,206.1c1.2,6-3.4,7.5-7.3,9.8c-4.3,2.5-7.5,0.6-11.1-1.9c-2.4-1.7-1.8-3.5-1.1-5.2
			c0.2-0.5,3-0.8,3.9-0.1c3.7,2.7,6.9,1.7,10.3-0.5c1.6-1,3.7-1.3,5.6-1.9L235.2,206.1z"/>
		<path id="XMLID_135_" class="st1" d="M200.1,218.5c-2.6,0-5.2,0.1-7.7,0c-2.4-0.2-4-1.7-3.4-4.1c0.2-0.8,2.2-1.6,3.5-1.8
			c4.8-0.6,9.6,0.8,14.4-1.3c1.8-0.8,3.2,1.3,3.3,3.3c0.1,1.8,0.4,3.8-2.3,3.9C205.2,218.5,202.7,218.5,200.1,218.5z"/>
		<path id="XMLID_134_" class="st1" d="M294.1,211.8c-0.3,1.8-8,7.2-9.2,6.5c-3.1-1.5-6.1-3.3-8.8-5.5c-1.4-1.2,0.3-3.8,2.4-3.4
			c4.2,0.9,8.2,2,12.5,0.1C291.6,209.3,293.2,211.2,294.1,211.8z"/>
		<path id="XMLID_133_" class="st1" d="M235.4,206.3c-0.6-0.8-1.5-1.6-1.8-2.5c-0.4-1.1-0.3-2.3-0.4-3.4c1.1,0.2,2.7,0,3.3,0.6
			c3.5,3.5,6.8,2.7,10.3,0.2c0.9-0.6,2.2-0.5,3.4-0.7c-0.5,1.3-0.6,2.9-1.5,3.7c-4,3.7-8.6,4.4-13.5,1.9L235.4,206.3z"/>
	</g>
</g>
</svg>
